<?xml version='1.0' encoding='UTF-8'?>
<score-partwise>
  <movement-title>MonLealDesir</movement-title>
  <identification>
    <encoding>
      <software>abc2xml version 33, http://wim.vree.org/svgParse/abc2xml.html</software>
      <encoding-date>2017-12-10</encoding-date>
    </encoding>
  </identification>
  <part-list>
    <score-part id="P1">
      <part-name>1</part-name>
    </score-part>
  </part-list>
  <part id="P1">
    <measure number="1">
      <attributes>
        <divisions>120</divisions>
        <key>
          <fifths>2</fifths>
          <mode>major</mode>
        </key>
        <time>
          <beats>6</beats>
          <beat-type>4</beat-type>
        </time>
        <clef>
          <sign>G</sign>
          <line>2</line>
        </clef>
      </attributes>
      <note>
        <pitch>
          <step>F</step>
          <alter>1</alter>
          <octave>3</octave>
        </pitch>
        <duration>720</duration>
        <voice>1</voice>
        <type>whole</type>
        <dot />
      </note>
    </measure>
    <measure number="2">
      <note>
        <pitch>
          <step>G</step>
          <octave>3</octave>
        </pitch>
        <duration>720</duration>
        <voice>1</voice>
        <type>whole</type>
        <dot />
      </note>
    </measure>
    <measure number="3">
      <note>
        <pitch>
          <step>A</step>
          <octave>3</octave>
        </pitch>
        <duration>720</duration>
        <voice>1</voice>
        <type>whole</type>
        <dot />
      </note>
    </measure>
    <measure number="4">
      <note>
        <pitch>
          <step>A</step>
          <octave>3</octave>
        </pitch>
        <duration>720</duration>
        <voice>1</voice>
        <type>whole</type>
        <dot />
      </note>
    </measure>
    <measure number="5">
      <note>
        <pitch>
          <step>D</step>
          <octave>4</octave>
        </pitch>
        <duration>720</duration>
        <voice>1</voice>
        <type>whole</type>
        <dot />
      </note>
    </measure>
    <measure number="6">
      <note>
        <pitch>
          <step>C</step>
          <alter>1</alter>
          <octave>4</octave>
        </pitch>
        <duration>720</duration>
        <voice>1</voice>
        <type>whole</type>
        <dot />
      </note>
    </measure>
    <measure number="7">
      <note>
        <pitch>
          <step>D</step>
          <octave>4</octave>
        </pitch>
        <duration>720</duration>
        <voice>1</voice>
        <type>whole</type>
        <dot />
      </note>
    </measure>
    <measure number="8">
      <note>
        <pitch>
          <step>A</step>
          <octave>3</octave>
        </pitch>
        <duration>720</duration>
        <voice>1</voice>
        <type>whole</type>
        <dot />
      </note>
    </measure>
    <measure number="9">
      <note>
        <pitch>
          <step>C</step>
          <alter>1</alter>
          <octave>4</octave>
        </pitch>
        <duration>720</duration>
        <voice>1</voice>
        <type>whole</type>
        <dot />
      </note>
    </measure>
    <measure number="10">
      <note>
        <pitch>
          <step>B</step>
          <alter>-1</alter>
          <octave>3</octave>
        </pitch>
        <duration>720</duration>
        <voice>1</voice>
        <type>whole</type>
        <dot />
      </note>
    </measure>
    <measure number="11">
      <note>
        <pitch>
          <step>A</step>
          <octave>3</octave>
        </pitch>
        <duration>720</duration>
        <voice>1</voice>
        <type>whole</type>
        <dot />
      </note>
    </measure>
    <measure number="12">
      <note>
        <pitch>
          <step>A</step>
          <octave>3</octave>
        </pitch>
        <duration>720</duration>
        <voice>1</voice>
        <type>whole</type>
        <dot />
      </note>
    </measure>
    <measure number="13">
      <note>
        <pitch>
          <step>F</step>
          <alter>1</alter>
          <octave>3</octave>
        </pitch>
        <duration>720</duration>
        <voice>1</voice>
        <type>whole</type>
        <dot />
      </note>
    </measure>
    <measure number="14">
      <note>
        <pitch>
          <step>A</step>
          <octave>3</octave>
        </pitch>
        <duration>720</duration>
        <voice>1</voice>
        <type>whole</type>
        <dot />
      </note>
    </measure>
    <measure number="15">
      <note>
        <pitch>
          <step>G</step>
          <octave>3</octave>
        </pitch>
        <duration>720</duration>
        <voice>1</voice>
        <type>whole</type>
        <dot />
      </note>
    </measure>
    <measure number="16">
      <note>
        <pitch>
          <step>D</step>
          <octave>3</octave>
        </pitch>
        <duration>720</duration>
        <voice>1</voice>
        <type>whole</type>
        <dot />
      </note>
    </measure>
    <measure number="17">
      <note>
        <pitch>
          <step>E</step>
          <octave>3</octave>
        </pitch>
        <duration>720</duration>
        <voice>1</voice>
        <type>whole</type>
        <dot />
      </note>
    </measure>
    <measure number="18">
      <note>
        <pitch>
          <step>E</step>
          <octave>3</octave>
        </pitch>
        <duration>720</duration>
        <voice>1</voice>
        <type>whole</type>
        <dot />
      </note>
    </measure>
    <measure number="19">
      <note>
        <pitch>
          <step>D</step>
          <octave>3</octave>
        </pitch>
        <duration>720</duration>
        <voice>1</voice>
        <type>whole</type>
        <dot />
      </note>
    </measure>
    <measure number="20">
      <note>
        <pitch>
          <step>D</step>
          <octave>3</octave>
        </pitch>
        <duration>720</duration>
        <voice>1</voice>
        <type>whole</type>
        <dot />
      </note>
    </measure>
    <measure number="21">
      <note>
        <pitch>
          <step>A</step>
          <octave>3</octave>
        </pitch>
        <duration>720</duration>
        <voice>1</voice>
        <type>whole</type>
        <dot />
      </note>
    </measure>
    <measure number="22">
      <note>
        <pitch>
          <step>A</step>
          <octave>3</octave>
        </pitch>
        <duration>720</duration>
        <voice>1</voice>
        <type>whole</type>
        <dot />
      </note>
    </measure>
    <measure number="23">
      <note>
        <pitch>
          <step>B</step>
          <octave>3</octave>
        </pitch>
        <duration>720</duration>
        <voice>1</voice>
        <type>whole</type>
        <dot />
      </note>
    </measure>
    <measure number="24">
      <note>
        <pitch>
          <step>B</step>
          <octave>3</octave>
        </pitch>
        <duration>720</duration>
        <voice>1</voice>
        <type>whole</type>
        <dot />
      </note>
    </measure>
    <measure number="25">
      <note>
        <pitch>
          <step>D</step>
          <octave>4</octave>
        </pitch>
        <duration>720</duration>
        <voice>1</voice>
        <type>whole</type>
        <dot />
      </note>
    </measure>
    <measure number="26">
      <note>
        <pitch>
          <step>E</step>
          <octave>4</octave>
        </pitch>
        <duration>720</duration>
        <voice>1</voice>
        <type>whole</type>
        <dot />
      </note>
    </measure>
    <measure number="27">
      <note>
        <pitch>
          <step>D</step>
          <octave>4</octave>
        </pitch>
        <duration>720</duration>
        <voice>1</voice>
        <type>whole</type>
        <dot />
      </note>
    </measure>
    <measure number="28">
      <note>
        <pitch>
          <step>D</step>
          <octave>4</octave>
        </pitch>
        <duration>720</duration>
        <voice>1</voice>
        <type>whole</type>
        <dot />
      </note>
    </measure>
    <measure number="29">
      <note>
        <pitch>
          <step>A</step>
          <octave>3</octave>
        </pitch>
        <duration>720</duration>
        <voice>1</voice>
        <type>whole</type>
        <dot />
      </note>
    </measure>
    <measure number="30">
      <note>
        <pitch>
          <step>B</step>
          <octave>3</octave>
        </pitch>
        <duration>720</duration>
        <voice>1</voice>
        <type>whole</type>
        <dot />
      </note>
    </measure>
    <measure number="31">
      <note>
        <pitch>
          <step>A</step>
          <octave>3</octave>
        </pitch>
        <duration>720</duration>
        <voice>1</voice>
        <type>whole</type>
        <dot />
      </note>
    </measure>
    <measure number="32">
      <note>
        <pitch>
          <step>A</step>
          <octave>3</octave>
        </pitch>
        <duration>720</duration>
        <voice>1</voice>
        <type>whole</type>
        <dot />
      </note>
    </measure>
    <measure number="33">
      <note>
        <pitch>
          <step>E</step>
          <octave>3</octave>
        </pitch>
        <duration>720</duration>
        <voice>1</voice>
        <type>whole</type>
        <dot />
      </note>
    </measure>
    <measure number="34">
      <note>
        <pitch>
          <step>F</step>
          <alter>1</alter>
          <octave>3</octave>
        </pitch>
        <duration>720</duration>
        <voice>1</voice>
        <type>whole</type>
        <dot />
      </note>
    </measure>
    <measure number="35">
      <note>
        <pitch>
          <step>E</step>
          <octave>3</octave>
        </pitch>
        <duration>720</duration>
        <voice>1</voice>
        <type>whole</type>
        <dot />
      </note>
    </measure>
    <measure number="36">
      <note>
        <pitch>
          <step>D</step>
          <octave>3</octave>
        </pitch>
        <duration>720</duration>
        <voice>1</voice>
        <type>whole</type>
        <dot />
      </note>
    </measure>
    <measure number="37">
      <note>
        <pitch>
          <step>A</step>
          <octave>3</octave>
        </pitch>
        <duration>720</duration>
        <voice>1</voice>
        <type>whole</type>
        <dot />
      </note>
    </measure>
    <measure number="38">
      <note>
        <pitch>
          <step>C</step>
          <alter>1</alter>
          <octave>4</octave>
        </pitch>
        <duration>720</duration>
        <voice>1</voice>
        <type>whole</type>
        <dot />
      </note>
    </measure>
    <measure number="39">
      <note>
        <pitch>
          <step>D</step>
          <octave>4</octave>
        </pitch>
        <duration>720</duration>
        <voice>1</voice>
        <type>whole</type>
        <dot />
      </note>
    </measure>
    <measure number="40">
      <note>
        <pitch>
          <step>D</step>
          <octave>4</octave>
        </pitch>
        <duration>720</duration>
        <voice>1</voice>
        <type>whole</type>
        <dot />
      </note>
    </measure>
    <measure number="41">
      <note>
        <pitch>
          <step>A</step>
          <octave>3</octave>
        </pitch>
        <duration>720</duration>
        <voice>1</voice>
        <type>whole</type>
        <dot />
      </note>
    </measure>
    <measure number="42">
      <note>
        <pitch>
          <step>F</step>
          <alter>1</alter>
          <octave>3</octave>
        </pitch>
        <duration>720</duration>
        <voice>1</voice>
        <type>whole</type>
        <dot />
      </note>
    </measure>
    <measure number="43">
      <note>
        <pitch>
          <step>D</step>
          <octave>3</octave>
        </pitch>
        <duration>720</duration>
        <voice>1</voice>
        <type>whole</type>
        <dot />
      </note>
    </measure>
    <measure number="44">
      <note>
        <pitch>
          <step>F</step>
          <alter>1</alter>
          <octave>3</octave>
        </pitch>
        <duration>720</duration>
        <voice>1</voice>
        <type>whole</type>
        <dot />
      </note>
    </measure>
    <measure number="45">
      <note>
        <pitch>
          <step>E</step>
          <octave>3</octave>
        </pitch>
        <duration>720</duration>
        <voice>1</voice>
        <type>whole</type>
        <dot />
      </note>
    </measure>
    <measure number="46">
      <note>
        <pitch>
          <step>E</step>
          <octave>3</octave>
        </pitch>
        <duration>720</duration>
        <voice>1</voice>
        <type>whole</type>
        <dot />
      </note>
    </measure>
    <measure number="47">
      <note>
        <pitch>
          <step>A</step>
          <octave>3</octave>
        </pitch>
        <duration>720</duration>
        <voice>1</voice>
        <type>whole</type>
        <dot />
      </note>
    </measure>
    <measure number="48">
      <note>
        <pitch>
          <step>B</step>
          <octave>3</octave>
        </pitch>
        <duration>720</duration>
        <voice>1</voice>
        <type>whole</type>
        <dot />
      </note>
    </measure>
    <measure number="49">
      <note>
        <pitch>
          <step>A</step>
          <octave>3</octave>
        </pitch>
        <duration>720</duration>
        <voice>1</voice>
        <type>whole</type>
        <dot />
      </note>
    </measure>
    <measure number="50">
      <note>
        <pitch>
          <step>A</step>
          <octave>3</octave>
        </pitch>
        <duration>720</duration>
        <voice>1</voice>
        <type>whole</type>
        <dot />
      </note>
    </measure>
    <measure number="51">
      <note>
        <pitch>
          <step>F</step>
          <alter>1</alter>
          <octave>3</octave>
        </pitch>
        <duration>720</duration>
        <voice>1</voice>
        <type>whole</type>
        <dot />
      </note>
    </measure>
    <measure number="52">
      <note>
        <pitch>
          <step>E</step>
          <octave>3</octave>
        </pitch>
        <duration>720</duration>
        <voice>1</voice>
        <type>whole</type>
        <dot />
      </note>
    </measure>
    <measure number="53">
      <note>
        <pitch>
          <step>D</step>
          <octave>3</octave>
        </pitch>
        <duration>720</duration>
        <voice>1</voice>
        <type>whole</type>
        <dot />
      </note>
    </measure>
    <measure number="54">
      <note>
        <pitch>
          <step>E</step>
          <octave>3</octave>
        </pitch>
        <duration>720</duration>
        <voice>1</voice>
        <type>whole</type>
        <dot />
      </note>
    </measure>
    <measure number="55">
      <note>
        <pitch>
          <step>D</step>
          <octave>3</octave>
        </pitch>
        <duration>720</duration>
        <voice>1</voice>
        <type>whole</type>
        <dot />
      </note>
    </measure>
    <measure number="56">
      <note>
        <pitch>
          <step>D</step>
          <octave>3</octave>
        </pitch>
        <duration>720</duration>
        <voice>1</voice>
        <type>whole</type>
        <dot />
      </note>
    </measure>
    <measure number="57">
      <note>
        <pitch>
          <step>D</step>
          <octave>3</octave>
        </pitch>
        <duration>720</duration>
        <voice>1</voice>
        <type>whole</type>
        <dot />
      </note>
    </measure>
  </part>
</score-partwise>